<svg width="32" height="30" viewBox="0 0 32 30" fill="none" xmlns="http://www.w3.org/2000/svg">
<g clip-path="url(#clip0_23_122)">
<path fill-rule="evenodd" clip-rule="evenodd" d="M0.166687 15.0838C0.166687 22.5413 5.88384 28.7425 13.3611 30V19.1663H9.4028V15H13.3611V11.6663C13.3611 7.91625 15.9116 5.83375 19.519 5.83375C20.6616 5.83375 21.894 6 23.0366 6.16625V10H21.0139C19.0783 10 18.6389 10.9163 18.6389 12.0837V15H22.8611L22.1579 19.1663H18.6389V30C26.1162 28.7425 31.8334 22.5425 31.8334 15.0838C31.8334 6.7875 24.7084 0 16 0C7.29169 0 0.166687 6.7875 0.166687 15.0838Z" fill="#E88FD4"/>
</g>
<defs>
<clipPath id="clip0_23_122">
<rect width="31.6667" height="30" fill="white" transform="translate(0.166687)"/>
</clipPath>
</defs>
</svg>
