<svg width="32" height="30" viewBox="0 0 32 30" fill="none" xmlns="http://www.w3.org/2000/svg">
<path d="M28.9202 4.6875H3.19098C2.64362 4.6875 2.2014 5.10645 2.2014 5.625V24.375C2.2014 24.8936 2.64362 25.3125 3.19098 25.3125H28.9202C29.4675 25.3125 29.9097 24.8936 29.9097 24.375V5.625C29.9097 5.10645 29.4675 4.6875 28.9202 4.6875ZM27.6832 7.93359V23.2031H4.42796V7.93359L3.57445 7.30371L4.78978 5.82422L6.11335 6.7998H26.0009L27.3244 5.82422L28.5398 7.30371L27.6832 7.93359ZM26.0009 6.79688L16.0556 14.1211L6.11025 6.79688L4.78669 5.82129L3.57136 7.30078L4.42487 7.93066L14.9887 15.7119C15.2925 15.9355 15.6662 16.0569 16.0509 16.0569C16.4356 16.0569 16.8094 15.9355 17.1132 15.7119L27.6832 7.93359L28.5367 7.30371L27.3214 5.82422L26.0009 6.79688Z" fill="#E88FD4"/>
</svg>
