<svg width="33" height="30" viewBox="0 0 33 30" fill="none" xmlns="http://www.w3.org/2000/svg">
<path d="M14.7587 7.79979L10.295 2.91854C9.78046 2.35604 8.83706 2.35854 8.23935 2.92604L4.56866 6.40979C3.47616 7.44604 3.16345 8.98479 3.79546 10.2185C7.57121 17.6248 13.8761 23.6062 21.6884 27.1935C22.9894 27.7923 24.6123 27.496 25.7048 26.4598L29.4098 22.9435C30.0102 22.3748 30.0115 21.476 29.4125 20.9885L24.2403 16.7823C23.6993 16.3423 22.8588 16.3998 22.3165 16.9148L20.5168 18.6223C20.4246 18.7138 20.3034 18.7741 20.1716 18.794C20.0397 18.8138 19.9047 18.7922 19.7871 18.7323C16.8454 17.1274 14.4051 14.8126 12.7149 12.0235C12.6516 11.912 12.6287 11.7838 12.6497 11.6587C12.6706 11.5336 12.7343 11.4185 12.831 11.331L14.6255 9.62979C15.1691 9.11229 15.2284 8.31229 14.7587 7.79854V7.79979Z" stroke="#E88FD4" stroke-width="5" stroke-linecap="round" stroke-linejoin="round"/>
</svg>
