<svg width="32" height="30" viewBox="0 0 32 30" fill="none" xmlns="http://www.w3.org/2000/svg">
<path fill-rule="evenodd" clip-rule="evenodd" d="M10.1274 1.3325C11.6751 1.265 12.1686 1.25 16.1111 1.25C20.0536 1.25 20.5471 1.26625 22.0935 1.3325C23.6399 1.39875 24.6954 1.6325 25.619 1.97125C26.5862 2.3175 27.4636 2.85875 28.1893 3.55875C28.9282 4.245 29.4982 5.075 29.8624 5.9925C30.2213 6.8675 30.4667 7.8675 30.5379 9.33C30.6092 10.7987 30.625 11.2662 30.625 15C30.625 18.735 30.6079 19.2025 30.5379 20.6688C30.468 22.1313 30.2213 23.1313 29.8624 24.0063C29.4982 24.9239 28.9272 25.7552 28.1893 26.4425C27.4636 27.1425 26.5862 27.6825 25.619 28.0275C24.6954 28.3675 23.6399 28.6 22.0961 28.6675C20.5471 28.735 20.0536 28.75 16.1111 28.75C12.1686 28.75 11.6751 28.7337 10.1274 28.6675C8.58369 28.6012 7.52813 28.3675 6.60452 28.0275C5.63594 27.6825 4.75838 27.1416 4.03292 26.4425C3.29454 25.7558 2.72313 24.9249 2.35855 24.0075C2.00098 23.1325 1.75556 22.1325 1.68431 20.67C1.61306 19.2013 1.59723 18.7337 1.59723 15C1.59723 11.265 1.61438 10.7975 1.68431 9.3325C1.75424 7.8675 2.00098 6.8675 2.35855 5.9925C2.72367 5.0751 3.29551 4.24414 4.03424 3.5575C4.75867 2.85813 5.63535 2.3168 6.6032 1.97125C7.52681 1.6325 8.58237 1.4 10.1261 1.3325H10.1274ZM21.976 3.8075C20.4455 3.74125 19.9863 3.7275 16.1111 3.7275C12.2359 3.7275 11.7767 3.74125 10.2462 3.8075C8.83042 3.86875 8.06251 4.0925 7.55056 4.28125C6.87369 4.53125 6.38945 4.8275 5.88147 5.30875C5.39993 5.75256 5.02934 6.29285 4.79688 6.89C4.59765 7.375 4.36146 8.1025 4.29681 9.44375C4.22688 10.8938 4.21237 11.3287 4.21237 15C4.21237 18.6712 4.22688 19.1062 4.29681 20.5562C4.36146 21.8975 4.59765 22.625 4.79688 23.11C5.0291 23.7063 5.39987 24.2475 5.88147 24.6912C6.34987 25.1475 6.92119 25.4988 7.55056 25.7188C8.06251 25.9075 8.83042 26.1313 10.2462 26.1925C11.7767 26.2588 12.2346 26.2725 16.1111 26.2725C19.9876 26.2725 20.4455 26.2588 21.976 26.1925C23.3918 26.1313 24.1597 25.9075 24.6717 25.7188C25.3485 25.4688 25.8328 25.1725 26.3408 24.6912C26.8224 24.2475 27.1931 23.7063 27.4254 23.11C27.6246 22.625 27.8608 21.8975 27.9254 20.5562C27.9954 19.1062 28.0099 18.6712 28.0099 15C28.0099 11.3287 27.9954 10.8938 27.9254 9.44375C27.8608 8.1025 27.6246 7.375 27.4254 6.89C27.1615 6.24875 26.8488 5.79 26.3408 5.30875C25.8723 4.85259 25.302 4.50151 24.6717 4.28125C24.1597 4.0925 23.3918 3.86875 21.976 3.8075ZM14.2573 19.2388C15.2926 19.647 16.4454 19.7021 17.5189 19.3947C18.5923 19.0872 19.5198 18.4361 20.1428 17.5528C20.7659 16.6695 21.0459 15.6086 20.9351 14.5514C20.8242 13.4942 20.3294 12.5062 19.5351 11.7562C19.0287 11.2768 18.4165 10.9098 17.7424 10.6814C17.0683 10.4531 16.3492 10.3692 15.6368 10.4358C14.9244 10.5023 14.2364 10.7177 13.6224 11.0664C13.0084 11.4151 12.4836 11.8884 12.0859 12.4523C11.6882 13.0162 11.4273 13.6566 11.3222 14.3275C11.2171 14.9983 11.2703 15.6829 11.4779 16.3319C11.6856 16.9809 12.0426 17.5783 12.5232 18.0809C13.0038 18.5835 13.596 18.979 14.2573 19.2388ZM10.836 10.0025C11.5287 9.34622 12.3511 8.82563 13.2562 8.47045C14.1613 8.11527 15.1314 7.93247 16.1111 7.93247C17.0908 7.93247 18.0609 8.11527 18.966 8.47045C19.8711 8.82563 20.6935 9.34622 21.3863 10.0025C22.079 10.6588 22.6285 11.4379 23.0034 12.2954C23.3783 13.1528 23.5713 14.0719 23.5713 15C23.5713 15.9281 23.3783 16.8472 23.0034 17.7046C22.6285 18.5621 22.079 19.3412 21.3863 19.9975C19.9872 21.3229 18.0897 22.0675 16.1111 22.0675C14.1326 22.0675 12.235 21.3229 10.836 19.9975C9.43692 18.6721 8.65095 16.8744 8.65095 15C8.65095 13.1256 9.43692 11.3279 10.836 10.0025ZM25.2258 8.985C25.3975 8.83159 25.5349 8.6471 25.63 8.44247C25.725 8.23783 25.7758 8.01721 25.7792 7.79366C25.7827 7.57011 25.7387 7.34818 25.65 7.14101C25.5613 6.93384 25.4296 6.74564 25.2627 6.58755C25.0959 6.42946 24.8972 6.3047 24.6785 6.22065C24.4598 6.1366 24.2256 6.09497 23.9896 6.09823C23.7536 6.10149 23.5208 6.14957 23.3048 6.23962C23.0888 6.32967 22.894 6.45987 22.7321 6.6225C22.4172 6.93879 22.2447 7.3589 22.2514 7.79366C22.2581 8.22842 22.4434 8.6436 22.7679 8.95105C23.0925 9.25851 23.5307 9.43404 23.9896 9.44037C24.4485 9.44671 24.892 9.28336 25.2258 8.985Z" fill="#E88FD4"/>
</svg>
