<?xml version="1.0" encoding="UTF-8"?>
<!DOCTYPE svg PUBLIC "-//W3C//DTD SVG 1.1//EN" "http://www.w3.org/Graphics/SVG/1.1/DTD/svg11.dtd">
<svg xmlns="http://www.w3.org/2000/svg" version="1.1" width="344px" height="233px" style="shape-rendering:geometricPrecision; text-rendering:geometricPrecision; image-rendering:optimizeQuality; fill-rule:evenodd; clip-rule:evenodd" xmlns:xlink="http://www.w3.org/1999/xlink">
<g><path style="opacity:1" fill="#fefefe" d="M -0.5,-0.5 C 114.167,-0.5 228.833,-0.5 343.5,-0.5C 343.5,77.1667 343.5,154.833 343.5,232.5C 228.833,232.5 114.167,232.5 -0.5,232.5C -0.5,154.833 -0.5,77.1667 -0.5,-0.5 Z"/></g>
<g><path style="opacity:1" fill="#f0b9e4" d="M 130.5,44.5 C 112.5,44.5 94.5,44.5 76.5,44.5C 76.5,48.1667 76.5,51.8333 76.5,55.5C 75.5166,51.7016 75.1832,47.7016 75.5,43.5C 94.0076,43.1698 112.341,43.5032 130.5,44.5 Z"/></g>
<g><path style="opacity:1" fill="#e88fd4" d="M 130.5,44.5 C 130.5,48.1667 130.5,51.8333 130.5,55.5C 123.5,55.5 116.5,55.5 109.5,55.5C 109.5,73.5 109.5,91.5 109.5,109.5C 105.5,109.5 101.5,109.5 97.5,109.5C 97.8301,91.3256 97.4968,73.3256 96.5,55.5C 89.8333,55.5 83.1667,55.5 76.5,55.5C 76.5,51.8333 76.5,48.1667 76.5,44.5C 94.5,44.5 112.5,44.5 130.5,44.5 Z"/></g>
<g><path style="opacity:1" fill="#e892d5" d="M 152.5,87.5 C 151.508,94.6476 151.175,101.981 151.5,109.5C 147.5,109.5 143.5,109.5 139.5,109.5C 139.5,87.5 139.5,65.5 139.5,43.5C 151.895,43.0824 164.228,43.5824 176.5,45C 188.944,50.7306 193.11,60.2306 189,73.5C 187.167,80.6667 182.667,85.1667 175.5,87C 167.841,87.4997 160.174,87.6664 152.5,87.5 Z"/></g>
<g><path style="opacity:1" fill="#efb7e3" d="M 96.5,55.5 C 97.4968,73.3256 97.8301,91.3256 97.5,109.5C 101.5,109.5 105.5,109.5 109.5,109.5C 105.366,110.485 101.032,110.818 96.5,110.5C 96.5,92.1667 96.5,73.8333 96.5,55.5 Z"/></g>
<g><path style="opacity:1" fill="#fefdfe" d="M 152.5,55.5 C 158.842,55.3338 165.175,55.5005 171.5,56C 177.63,60.0733 179.13,65.5733 176,72.5C 175.097,73.7014 173.931,74.5348 172.5,75C 165.842,75.4996 159.175,75.6663 152.5,75.5C 152.5,68.8333 152.5,62.1667 152.5,55.5 Z"/></g>
<g><path style="opacity:1" fill="#efb5e2" d="M 152.5,87.5 C 152.5,95.1667 152.5,102.833 152.5,110.5C 147.968,110.818 143.634,110.485 139.5,109.5C 143.5,109.5 147.5,109.5 151.5,109.5C 151.175,101.981 151.508,94.6476 152.5,87.5 Z"/></g>
<g><path style="opacity:1" fill="#e891d4" d="M 163.5,116.5 C 177.869,114.449 189.369,119.115 198,130.5C 199.411,132.65 200.245,134.984 200.5,137.5C 196.789,138.292 193.122,139.292 189.5,140.5C 183.233,129.24 173.899,125.74 161.5,130C 153.213,136.852 150.046,145.686 152,156.5C 154.833,170.009 163,175.509 176.5,173C 182.453,171.217 186.119,167.384 187.5,161.5C 191.586,161.884 195.586,162.717 199.5,164C 200.517,165.049 200.684,166.216 200,167.5C 195.838,176.993 188.671,182.826 178.5,185C 156.158,188.088 142.992,178.588 139,156.5C 137.328,144.188 140.495,133.355 148.5,124C 153.06,120.386 158.06,117.886 163.5,116.5 Z"/></g>
<g><path style="opacity:1" fill="#e892d5" d="M 263.5,182.5 C 259.366,183.485 255.032,183.818 250.5,183.5C 246.974,176.282 243.307,169.115 239.5,162C 234.845,161.501 230.179,161.334 225.5,161.5C 225.5,169.167 225.5,176.833 225.5,184.5C 221.233,184.797 217.066,184.464 213,183.5C 212.5,161.503 212.333,139.503 212.5,117.5C 223.505,117.333 234.505,117.5 245.5,118C 254.653,118.819 260.487,123.653 263,132.5C 265.344,143.821 262.178,153.155 253.5,160.5C 256.842,167.85 260.176,175.183 263.5,182.5 Z"/></g>
<g><path style="opacity:1" fill="#fefdfe" d="M 225.5,129.5 C 232.175,129.334 238.842,129.5 245.5,130C 251.896,134.31 253.063,139.81 249,146.5C 248.097,147.701 246.931,148.535 245.5,149C 238.842,149.5 232.175,149.666 225.5,149.5C 225.5,142.833 225.5,136.167 225.5,129.5 Z"/></g>
<g><path style="opacity:1" fill="#f2c6e8" d="M 263.5,182.5 C 264.043,182.56 264.376,182.893 264.5,183.5C 259.682,184.812 255.015,184.812 250.5,183.5C 255.032,183.818 259.366,183.485 263.5,182.5 Z"/></g>
</svg>
